<svg width="118" height="26" viewBox="0 0 118 26" fill="none" xmlns="http://www.w3.org/2000/svg">
<g clip-path="url(#clip0_1_10312)">
<path d="M8.9254 14.1622L15.8713 25.1307C15.9534 25.2562 16.0664 25.358 16.1991 25.4264C16.332 25.4947 16.4801 25.5272 16.629 25.5207H19.2023C19.3184 25.522 19.4336 25.5 19.5412 25.4559C19.6487 25.4118 19.7465 25.3465 19.8287 25.2639C19.9109 25.1812 19.9759 25.0828 20.0198 24.9745C20.0639 24.8662 20.086 24.7501 20.0849 24.633V1.40426C20.0831 1.219 20.0245 1.03884 19.9172 0.888473C19.8098 0.738108 19.6589 0.624904 19.4852 0.564387C19.3115 0.50387 19.1234 0.499003 18.9469 0.550455C18.7703 0.601906 18.6139 0.707155 18.499 0.851769L8.9254 13.0958C8.82167 13.254 8.76636 13.4394 8.76636 13.629C8.76636 13.8186 8.82167 14.004 8.9254 14.1622Z" fill="white"/>
<path d="M1.11696 25.5168H5.69925C5.81536 25.5182 5.93057 25.4962 6.03813 25.4521C6.14568 25.408 6.24343 25.3427 6.32563 25.26C6.40783 25.1774 6.47284 25.079 6.5168 24.9707C6.56083 24.8623 6.58296 24.7463 6.58185 24.6292V18.7387C6.57905 18.5537 6.51966 18.3741 6.41191 18.2243C6.30414 18.0745 6.15318 17.9619 5.97959 17.9017C5.80601 17.8415 5.61824 17.8367 5.44187 17.888C5.26549 17.9393 5.1091 18.0442 4.99397 18.1883L0.411686 24.0788C0.313875 24.212 0.254402 24.3699 0.2398 24.535C0.225199 24.7002 0.256034 24.8662 0.328919 25.0148C0.401803 25.1634 0.513915 25.2889 0.652939 25.3775C0.791963 25.466 0.952517 25.5143 1.11696 25.5168Z" fill="white"/>
<path d="M82.9613 12.2732C82.9092 12.2085 82.8515 12.1481 82.7901 12.0924L82.6953 12.0112L82.6469 11.9685C82.4287 11.7832 82.1912 11.6212 81.9395 11.485C81.6666 11.3202 81.3777 11.184 81.0776 11.0788C80.7701 10.9681 80.4538 10.8838 80.132 10.827C79.3018 10.6781 78.4486 10.7218 77.6376 10.9549C77.1527 11.0931 76.6871 11.2917 76.2512 11.546C75.8228 11.799 75.4278 12.1062 75.0762 12.46C74.7259 12.817 74.4171 13.2129 74.1555 13.6402C73.8895 14.0705 73.6861 14.537 73.5509 15.0254C73.2651 16.0357 73.2651 17.1066 73.5509 18.1169C73.6892 18.6035 73.8926 19.0689 74.1555 19.5002C74.4171 19.9274 74.7259 20.3233 75.0762 20.6803C75.4296 21.0346 75.8252 21.3424 76.2549 21.5963C76.6921 21.8435 77.1552 22.041 77.6358 22.1854C78.4672 22.4356 79.3464 22.4795 80.199 22.3133C80.5264 22.2588 80.8469 22.1668 81.1539 22.0392C81.4484 21.918 81.733 21.7748 82.0064 21.6106C82.2774 21.4476 82.539 21.2678 82.7883 21.0723C82.8596 21.0093 82.9272 20.9415 82.9898 20.8692L83.022 20.8327C83.0816 20.7608 83.1268 20.678 83.1547 20.5889L83.1671 20.5158C83.1733 20.3988 83.146 20.2824 83.0884 20.1806L83.0599 20.1359C83.0382 20.1 83.0134 20.066 82.9855 20.0343L82.9111 19.9328C82.7616 19.7297 82.6209 19.5266 82.4696 19.3397C82.4057 19.2655 82.3257 19.2072 82.2358 19.1691C82.1465 19.1386 82.0492 19.1386 81.9599 19.1691C81.8316 19.2267 81.715 19.3072 81.6152 19.4067L81.4825 19.5205C81.351 19.6302 81.281 19.7013 81.0974 19.8312C80.9325 19.958 80.7539 20.0663 80.5654 20.1542C80.3621 20.2587 80.1463 20.3352 79.9225 20.3817C79.1871 20.5422 78.4207 20.461 77.7343 20.1502C77.2929 19.9498 76.8923 19.6697 76.5513 19.3235C76.2016 18.9695 75.922 18.5518 75.7273 18.0925C75.5202 17.6265 75.4129 17.1215 75.4129 16.6108C75.4129 16.1 75.5202 15.5951 75.7273 15.129C75.9238 14.6674 76.2022 14.2461 76.5494 13.8859C76.8948 13.5375 77.296 13.2505 77.7362 13.0369C78.3736 12.732 79.0928 12.6463 79.7836 12.7932C80.0148 12.8465 80.2412 12.9185 80.4607 13.0085C80.6702 13.098 80.8724 13.204 81.0652 13.3253C81.4682 13.565 81.9233 14.2515 82.3648 13.7072L83.0034 12.8419C83.0338 12.8005 83.0549 12.7533 83.0661 12.7035C83.0778 12.6536 83.0791 12.6018 83.0704 12.5514C83.0592 12.4506 83.0214 12.3545 82.9613 12.2732Z" fill="white"/>
<path d="M43.6673 21.4808L36.6791 5.45263C36.6322 5.33361 36.5511 5.23139 36.4464 5.15903C36.3415 5.08667 36.2177 5.04745 36.0906 5.04639H34.9703C34.845 5.04589 34.7224 5.08287 34.618 5.15266C34.5136 5.22245 34.4322 5.3219 34.3839 5.43841L27.3815 21.4625C27.3334 21.5605 27.3117 21.6697 27.3188 21.7788C27.3259 21.8879 27.3614 21.9932 27.4218 22.0841C27.4789 22.1769 27.5588 22.2533 27.6538 22.306C27.7487 22.3587 27.8555 22.3858 27.9638 22.3847H28.9976C29.1236 22.3873 29.2473 22.3512 29.3524 22.2812C29.4575 22.2111 29.539 22.1105 29.586 21.9927L31.2665 18.0379H39.7601L41.4306 21.9927C41.4776 22.112 41.559 22.2145 41.6642 22.2868C41.7694 22.3592 41.8937 22.3983 42.021 22.3989H43.0286C43.133 22.4056 43.2375 22.3859 43.3326 22.3415C43.4276 22.2972 43.5101 22.2297 43.5727 22.145C43.6463 22.0532 43.6939 21.943 43.7106 21.826C43.7273 21.7092 43.7124 21.5898 43.6673 21.4808ZM32.1613 15.9966L32.1895 15.9336L35.5567 8.03428L38.934 15.9966H32.1613Z" fill="white"/>
<path d="M107.652 14.7819C107.478 14.1617 107.206 13.5738 106.846 13.0412C106.58 12.6827 106.275 12.3562 105.935 12.0682C105.613 11.7793 105.248 11.5435 104.853 11.3695C104.467 11.1754 104.062 11.0242 103.644 10.9185C102.71 10.6867 101.732 10.7056 100.807 10.9734C100.332 11.1063 99.8778 11.3045 99.4568 11.5624C99.0402 11.8239 98.6557 12.1333 98.3104 12.4846C97.9712 12.8355 97.6829 13.2336 97.456 13.6667C97.2142 14.1078 97.0294 14.5781 96.906 15.0662C96.6902 15.8435 96.6474 16.6592 96.7808 17.4549C96.8155 17.7659 96.875 18.0736 96.9581 18.3751C97.1317 18.9967 97.4039 19.5859 97.7641 20.1199C98.0295 20.4777 98.3352 20.8035 98.675 21.0908C98.998 21.38 99.3638 21.6165 99.7588 21.7915C100.144 21.9859 100.55 22.1365 100.968 22.2405C102.393 22.5915 103.898 22.36 105.153 21.5965C105.57 21.3357 105.954 21.0269 106.3 20.6764C106.629 20.3394 106.907 19.9547 107.124 19.5349L107.142 19.4943C107.183 19.439 107.207 19.3735 107.213 19.3049C107.219 19.2364 107.205 19.1676 107.174 19.1063C107.149 19.0597 107.112 19.0206 107.067 18.9928C107.023 18.965 106.971 18.9495 106.918 18.9479H105.248C105.178 18.9462 105.108 18.9609 105.044 18.9909C104.98 19.0208 104.924 19.0652 104.879 19.1205C104.669 19.3778 104.423 19.6035 104.15 19.7909C103.857 19.9793 103.539 20.1237 103.205 20.2194C102.463 20.4359 101.673 20.4132 100.946 20.1544C100.559 20.0126 100.194 19.8127 99.8661 19.5613C99.5467 19.306 99.282 18.989 99.086 18.629C98.9149 18.2398 98.794 17.8302 98.7252 17.4102L98.7153 17.3575H98.7717L107.356 17.3392C107.708 17.3392 107.908 17.1198 107.908 16.7298C107.932 16.0707 107.845 15.4122 107.652 14.7819ZM105.825 15.5477L98.8783 15.5802L98.8963 15.5212C99.0123 15.1259 99.1853 14.75 99.4103 14.4061C99.685 13.9978 100.033 13.6456 100.438 13.3682C100.733 13.1776 101.054 13.0318 101.391 12.9355C102.132 12.719 102.922 12.7418 103.65 13.0005C104.038 13.1424 104.402 13.3423 104.73 13.5936C105.051 13.8503 105.317 14.1695 105.512 14.532C105.682 14.831 105.804 15.1553 105.873 15.4928L105.885 15.5477H105.825Z" fill="white"/>
<path d="M55.9996 20.6663C56.3454 20.3095 56.649 19.9135 56.9043 19.4862C57.157 19.0469 57.354 18.5774 57.4907 18.0887C57.7749 17.0788 57.7749 16.0092 57.4907 14.9992C57.354 14.5106 57.157 14.0411 56.9043 13.6018C56.3985 12.7344 55.6813 12.0114 54.8208 11.5016C54.3898 11.2499 53.9304 11.0515 53.4525 10.9104C52.2197 10.5507 50.9012 10.6341 49.7226 11.1461C49.2265 11.3736 48.7635 11.6681 48.3463 12.0216L48.2718 12.0845V11.4589C48.2805 11.3814 48.2717 11.3029 48.2461 11.2292C48.2205 11.1556 48.1787 11.0887 48.1239 11.0336C48.069 10.9786 48.0026 10.9367 47.9295 10.9111C47.8563 10.8856 47.7784 10.877 47.7015 10.8861H46.8229C46.7452 10.8767 46.6665 10.8849 46.5923 10.9101C46.5182 10.9354 46.4506 10.9769 46.3944 11.0317C46.3383 11.0866 46.2949 11.1534 46.2676 11.2274C46.2403 11.3012 46.2297 11.3803 46.2365 11.4589V24.942C46.2341 25.0166 46.2466 25.0909 46.2732 25.1605C46.2999 25.2302 46.3402 25.2937 46.3917 25.3474C46.4432 25.401 46.5049 25.4437 46.5731 25.4727C46.6413 25.5019 46.7146 25.5169 46.7887 25.5168H47.6854C47.8431 25.5215 47.9964 25.464 48.1126 25.3564C48.165 25.303 48.2061 25.2395 48.2335 25.1697C48.2609 25.0999 48.2739 25.0252 48.2718 24.9501V21.0095L48.3463 21.0725C48.7576 21.4216 49.2155 21.7108 49.7065 21.9317C50.8844 22.4436 52.2023 22.5269 53.4344 22.1674C53.9192 22.0295 54.385 21.8309 54.8208 21.5763C55.2511 21.3257 55.6473 21.0198 55.9996 20.6663ZM53.3337 20.1016C52.8874 20.3109 52.4012 20.4194 51.909 20.4194C51.4168 20.4194 50.9306 20.3109 50.4843 20.1016C50.0362 19.8983 49.6338 19.6053 49.3015 19.2404C48.9602 18.8796 48.687 18.459 48.4954 17.9994C48.302 17.5339 48.2023 17.0344 48.2023 16.5297C48.2023 16.0252 48.302 15.5256 48.4954 15.0602C48.6899 14.6088 48.9629 14.1961 49.3015 13.8415C49.6403 13.4882 50.0414 13.2016 50.4843 12.9965C50.9304 12.7878 51.4162 12.6797 51.9079 12.6797C52.3997 12.6797 52.8856 12.7878 53.3316 12.9965C53.7681 13.2038 54.1634 13.4894 54.4983 13.8394C54.8313 14.1952 55.0987 14.6079 55.2883 15.0582C55.4828 15.5229 55.583 16.0223 55.583 16.5267C55.583 17.0312 55.4828 17.5305 55.2883 17.9953C55.0949 18.4525 54.8273 18.874 54.4964 19.2424C54.1677 19.6021 53.7728 19.8939 53.3337 20.1016Z" fill="white"/>
<path d="M61.5351 10.9021H60.6565C60.5779 10.8925 60.4982 10.9009 60.4233 10.9266C60.3483 10.9524 60.2801 10.9949 60.2238 11.0509C60.1674 11.107 60.1243 11.1751 60.0977 11.2503C60.0711 11.3254 60.0617 11.4057 60.0702 11.485V24.9499C60.0684 25.0249 60.0815 25.0995 60.1089 25.1693C60.1362 25.239 60.1772 25.3026 60.2293 25.3561C60.2809 25.4079 60.3422 25.4488 60.4097 25.4764C60.4772 25.5039 60.5495 25.5176 60.6223 25.5166H61.517C61.6747 25.5214 61.828 25.4637 61.9442 25.3561C61.997 25.3031 62.0384 25.2396 62.0658 25.1697C62.0932 25.0999 62.1059 25.025 62.1033 24.9499V21.0094L62.1779 21.0723C62.5899 21.4218 63.0481 21.711 63.5404 21.9315C64.7179 22.4435 66.0361 22.5269 67.2681 22.1671C67.753 22.0289 68.2186 21.8304 68.6545 21.576C69.0842 21.3209 69.4804 21.0117 69.8332 20.6559C70.1786 20.2991 70.4811 19.9031 70.736 19.4758C70.9883 19.0365 71.1855 18.567 71.3225 18.0784C71.6084 17.0687 71.6084 15.9985 71.3225 14.9889C71.1861 14.5 70.989 14.0305 70.736 13.5914C70.2313 12.7237 69.5145 12.0006 68.6545 11.4912C68.2223 11.2399 67.7623 11.0415 67.2842 10.9C66.0516 10.5405 64.7327 10.6239 63.5541 11.1357C63.058 11.3632 62.5949 11.6577 62.1779 12.0111L62.0973 12.0944V11.485C62.1074 11.4075 62.1001 11.3286 62.0756 11.2544C62.0512 11.1801 62.0104 11.1124 61.9563 11.0563C61.9022 11.0002 61.8362 10.9572 61.7633 10.9305C61.6903 10.9037 61.6123 10.894 61.5351 10.9021ZM62.3289 15.0742C62.5242 14.623 62.797 14.2104 63.1349 13.8555C63.4722 13.4999 63.8721 13.2105 64.3136 13.0024C64.76 12.7937 65.2455 12.6855 65.7378 12.6855C66.2295 12.6855 66.715 12.7937 67.1614 13.0024C67.6035 13.209 68.0041 13.4954 68.3439 13.8474C68.6768 14.2032 68.9447 14.6159 69.1338 15.066C69.3291 15.5307 69.4295 16.0301 69.4295 16.5346C69.4295 17.0391 69.3291 17.5385 69.1338 18.0032C68.9428 18.4621 68.675 18.8846 68.342 19.2524C68.0134 19.6117 67.6184 19.9035 67.1794 20.1115C66.7324 20.3204 66.2463 20.4285 65.754 20.4285C65.261 20.4285 64.7749 20.3204 64.3279 20.1115C63.8808 19.9075 63.479 19.6145 63.1473 19.2504C62.8057 18.8898 62.5322 18.4692 62.3413 18.0093C62.1465 17.5452 62.0452 17.0468 62.0431 16.5429C62.0411 16.0391 62.1383 15.5399 62.3289 15.0742Z" fill="white"/>
<path d="M94.5399 11.3187C94.548 11.2399 94.5381 11.1603 94.5114 11.0859C94.4841 11.0114 94.4413 10.9441 94.3849 10.889C94.3285 10.8338 94.2603 10.7923 94.1853 10.7675C94.1109 10.7427 94.0315 10.7354 93.9534 10.7459H93.0692C92.9923 10.7369 92.9142 10.7454 92.841 10.771C92.7678 10.7965 92.7015 10.8384 92.6463 10.8935C92.5918 10.9485 92.5502 11.0154 92.5242 11.089C92.4987 11.1627 92.4901 11.2412 92.4987 11.3187V17.782C92.5062 18.1607 92.4243 18.5358 92.2606 18.8768C92.1205 19.1887 91.914 19.466 91.6567 19.6893C91.405 19.8984 91.121 20.0639 90.816 20.1788C90.4737 20.3066 90.1097 20.3629 89.7451 20.344C89.3806 20.3251 89.0234 20.2316 88.696 20.0691C88.386 19.9072 88.1169 19.675 87.9104 19.3907C87.7046 19.1202 87.5583 18.8085 87.4814 18.4767C87.3971 18.1391 87.3524 17.7928 87.3481 17.4448V11.4852C87.358 11.2904 87.3121 11.0967 87.2172 10.9267C87.1453 10.8524 87.0579 10.7956 86.9612 10.7604C86.8644 10.7252 86.7615 10.7126 86.6592 10.7235H86.0224C85.9276 10.7204 85.8327 10.7367 85.7446 10.7717C85.656 10.8066 85.576 10.8594 85.5084 10.9267C85.4377 11.006 85.3832 11.0989 85.3491 11.1997C85.3143 11.3005 85.3001 11.4072 85.3069 11.5137V17.4631C85.2995 18.1129 85.3962 18.7597 85.5934 19.3785C85.7787 19.9549 86.072 20.4899 86.4577 20.9547C86.8427 21.4095 87.3251 21.7707 87.8683 22.0109C88.8126 22.399 89.8499 22.4987 90.8507 22.2974C91.1204 22.2317 91.3845 22.1413 91.6381 22.0272C91.875 21.9164 92.0945 21.7714 92.2892 21.5965L92.4281 21.4665L92.5049 21.3914V21.8444C92.5031 21.9111 92.5142 21.9775 92.5384 22.0397C92.5632 22.1018 92.5992 22.1584 92.6457 22.2059C92.699 22.2726 92.7672 22.3257 92.8447 22.361C92.9216 22.3962 93.0066 22.4127 93.0909 22.409H93.9856C94.0588 22.4105 94.1307 22.3973 94.1983 22.3701C94.2659 22.3429 94.3272 22.3022 94.3787 22.2506C94.4351 22.2002 94.4792 22.1373 94.5071 22.0667C94.535 21.9962 94.5461 21.92 94.5399 21.8444V11.3187Z" fill="white"/>
<path d="M117.034 17.6438C116.848 17.2511 116.579 16.9044 116.244 16.6282C115.879 16.328 115.472 16.0837 115.035 15.9031C114.542 15.6966 114.031 15.5375 113.508 15.4278C113.253 15.3695 113.002 15.2928 112.759 15.1982C112.538 15.1172 112.328 15.0094 112.134 14.8773C111.871 14.7175 111.667 14.4758 111.553 14.1887C111.487 13.978 111.487 13.7516 111.553 13.5408C111.624 13.3032 111.922 12.6491 113.075 12.576C114.177 12.5069 114.731 13.0898 114.922 13.3498C114.951 13.3864 115.221 13.7378 115.414 13.9592C115.449 13.991 115.488 14.0183 115.529 14.0405C115.608 14.0713 115.694 14.0818 115.778 14.0708C115.862 14.0598 115.942 14.0277 116.011 13.9775L116.684 13.4738C116.757 13.4297 116.817 13.3672 116.859 13.2925C116.902 13.2177 116.924 13.1332 116.923 13.0472V13.0269C116.894 12.8963 116.842 12.772 116.77 12.6592C116.572 12.372 116.356 12.0967 116.125 11.8346C115.92 11.5907 115.68 11.3792 115.412 11.207C115.135 11.0336 114.833 10.9028 114.518 10.819C113.619 10.5894 112.672 10.6261 111.793 10.9246C111.349 11.0583 110.938 11.2831 110.584 11.5847C110.246 11.8673 109.976 12.2227 109.792 12.6247C109.609 13.027 109.512 13.4633 109.506 13.9056C109.5 14.348 109.585 14.7868 109.756 15.1942C109.921 15.5642 110.166 15.893 110.471 16.157C110.8 16.4413 111.163 16.6848 111.549 16.8821C112.003 17.0968 112.475 17.2695 112.96 17.398C113.103 17.4305 113.246 17.4692 113.395 17.5098C113.544 17.5504 113.689 17.589 113.836 17.6235C114.097 17.687 114.35 17.781 114.588 17.9038C114.789 18.0004 114.967 18.1388 115.11 18.31C115.236 18.4963 115.301 18.7172 115.297 18.9422C115.293 19.1673 115.22 19.3857 115.088 19.5673C114.941 19.7565 114.761 19.9164 114.556 20.0386C114.346 20.1616 114.12 20.2545 113.885 20.3148C113.487 20.4053 113.074 20.4053 112.676 20.3148C112.467 20.2604 112.264 20.1842 112.072 20.0873C111.876 19.9889 111.694 19.8661 111.529 19.7217C111.379 19.5532 111.249 19.3678 111.14 19.1692C111.089 19.051 111.013 18.9455 110.916 18.8605C110.84 18.796 110.746 18.7557 110.647 18.7445C110.547 18.7333 110.448 18.7518 110.358 18.7975L109.552 19.1814C109.484 19.2104 109.422 19.2517 109.369 19.3033C109.325 19.3473 109.29 19.3989 109.264 19.4557C109.233 19.5365 109.226 19.6247 109.244 19.7095C109.252 19.7948 109.273 19.8785 109.307 19.9573C109.446 20.3257 109.644 20.6687 109.893 20.973C110.169 21.3048 110.506 21.5805 110.884 21.7854C111.238 21.9983 111.623 22.1526 112.025 22.2425C112.949 22.463 113.914 22.4322 114.822 22.1531C115.301 22.0182 115.75 21.789 116.141 21.4787C116.519 21.1913 116.823 20.8165 117.026 20.3859C117.226 19.9571 117.33 19.4894 117.331 19.0158C117.333 18.5421 117.232 18.0738 117.034 17.6438Z" fill="white"/>
</g>
<defs>
<clipPath id="clip0_1_10312">
<rect width="117.188" height="25" fill="white" transform="translate(0.234375 0.516846)"/>
</clipPath>
</defs>
</svg>
