<svg width="118" height="26" viewBox="0 0 118 26" fill="none" xmlns="http://www.w3.org/2000/svg">
<g clip-path="url(#clip0_1_10302)">
<path d="M16.388 14.4402C16.3481 14.4876 16.3099 14.5368 16.2675 14.5814L16.2667 14.5907L12.2844 19.0454L12.2777 19.0435C12.0135 19.3411 11.699 19.5771 11.3528 19.7381C11.0065 19.8991 10.6351 19.9818 10.26 19.9815H6.34001C6.2623 19.9813 6.18533 19.9983 6.11351 20.0315C6.04169 20.0646 5.97641 20.1133 5.92143 20.1748C5.86644 20.2362 5.82282 20.3091 5.79306 20.3894C5.76329 20.4696 5.74798 20.5557 5.74798 20.6426V24.5577L5.73552 24.5587C5.71429 24.7028 5.65795 24.8376 5.57269 24.9483C5.48744 25.059 5.37656 25.1412 5.25224 25.186C5.12792 25.2308 4.99497 25.2365 4.86797 25.2023C4.74098 25.1681 4.62486 25.0955 4.53236 24.9924L4.52987 24.9942L0.917903 20.9565L0.921223 20.95C0.644656 20.6534 0.424618 20.2973 0.274355 19.9031C0.124091 19.5089 0.0467122 19.0848 0.0468753 18.6562V8.55365C0.0468753 7.69742 0.349949 6.92201 0.841508 6.34904L0.839848 6.34347L4.93508 1.76343L4.93674 1.76436C5.46821 1.18108 6.18326 0.854591 6.92788 0.855226H10.26C10.6852 0.855226 11.087 0.962019 11.4483 1.14867V1.14125C11.7572 1.3019 12.0378 1.51827 12.2736 1.78386L12.2786 1.78107L17.1394 7.21732L17.1402 13.5943H22.8281V23.5028C22.8297 23.5084 22.8297 23.5149 22.8297 23.5214V23.7452C22.8047 24.1474 22.6442 24.524 22.3807 24.799C22.1172 25.074 21.7703 25.2271 21.4098 25.2273H18.5592C18.3623 25.2271 18.1677 25.1814 17.9873 25.0928C17.8071 25.0043 17.6451 24.8749 17.5118 24.7129C17.3785 24.5508 17.2766 24.3596 17.2127 24.1514C17.1487 23.9431 17.124 23.7223 17.1402 23.5028V13.5943L16.388 14.4402ZM10.8562 13.6017C10.9339 13.6018 11.0109 13.5848 11.0827 13.5516C11.1546 13.5184 11.2198 13.4698 11.2748 13.4083C11.3298 13.347 11.3734 13.274 11.4032 13.1937C11.433 13.1135 11.4483 13.0274 11.4483 12.9405V7.89429C11.4483 7.80739 11.433 7.72133 11.4032 7.64105C11.3734 7.56077 11.3298 7.48784 11.2748 7.42643C11.2198 7.36502 11.1546 7.31634 11.0827 7.28317C11.0109 7.24999 10.9339 7.23298 10.8562 7.23311V7.23217H6.33918C6.1823 7.23217 6.03184 7.3018 5.92084 7.42577C5.80984 7.54975 5.74737 7.71792 5.74715 7.89336V12.9387C5.74715 13.3046 6.01202 13.5999 6.33918 13.5999H10.8545L10.8562 13.6017Z" fill="white"/>
<path d="M17.1436 13.6009H22.8313L17.1436 7.22583V13.6009Z" fill="white"/>
<path d="M30.894 6.16695H36.1575C38.3081 6.16695 40.2161 6.16695 41.3654 8.01216C41.8661 8.84142 42.1069 10.0226 42.1069 11.0173C42.1069 11.8251 41.9582 12.6135 41.6618 13.297C40.5317 15.9093 38.1221 15.9715 36.3427 16.0123H34.1746V20.8004H30.894V6.16695ZM34.1763 8.86188V13.297H36.1426C37.3673 13.297 38.8511 13.2562 38.8511 10.9968C38.8511 8.86097 37.1996 8.86097 36.2538 8.86097L34.1763 8.86188ZM46.0377 11.098C46.6679 10.4963 47.3538 10.0199 48.8359 9.85362V12.673L47.891 12.8383C46.5201 13.1076 46.1116 13.336 46.1116 14.7039V20.7976H43.2577V9.95763H46.0377V11.098ZM59.9741 15.3651C59.9741 18.1018 58.5658 21.1069 54.7845 21.1069C52.0601 21.1069 49.5766 19.3657 49.5766 15.3651C49.5766 12.0489 51.4482 9.41627 55.1557 9.64468C59.1031 9.89354 59.9741 13.3964 59.9741 15.3651ZM52.9311 13.232C52.5791 13.8542 52.4496 14.6018 52.4496 15.3493C52.4496 17.0719 53.1902 18.5875 54.7845 18.5875C56.3231 18.5875 57.0829 17.1963 57.0829 15.4951C57.0829 14.2907 56.823 13.3565 56.2857 12.7751C55.6929 12.1529 55.0253 12.1316 54.6176 12.1734C53.8022 12.2356 53.3206 12.5467 52.932 13.232H52.9311ZM62.2916 8.89718C62.2916 8.35854 62.3281 7.63235 62.6985 7.05194C63.0513 6.51334 63.8477 5.95337 65.1828 5.95337C65.7574 5.95337 66.332 6.05738 66.8875 6.1391V8.52385H66.2016C65.1272 8.52385 65.0716 8.77271 65.0898 10.2232H66.9988V12.1715H65.1081V20.7948H62.2725V12.1715H60.753V10.2232H62.2916V8.89718Z" fill="white"/>
<path d="M68.4255 8.61488H71.2414V6.14844H68.4255V8.61488ZM68.4255 20.8032H71.2414V9.96238H68.4255V20.8032Z" fill="white"/>
<path d="M74.1514 6.84497H76.9869V10.2234H78.8592V12.1716H76.9686V17.0433C76.9503 17.7063 76.9503 18.2662 77.7104 18.2662L78.7292 18.2245V20.7114C78.1182 20.8154 77.747 20.8776 77.2288 20.8776C76.2452 20.8776 75.1709 20.8154 74.5592 19.8199C74.1704 19.1782 74.1521 18.4112 74.1521 17.3748V12.1512H72.7431V10.2029H74.1514V6.84497Z" fill="white"/>
<path d="M89.5666 6.16724C89.9568 7.7422 90.3449 9.31807 90.7703 10.894C91.4944 13.7124 91.6238 14.1684 92.0316 17.0081C92.4204 14.1062 92.5132 13.6094 93.1059 10.6238C93.3843 9.13148 93.6804 7.63912 93.9588 6.16724H97.2021L93.8849 20.8007H90.5115C90.1044 19.1849 89.7143 17.5672 89.2882 15.9718C88.5837 13.2769 88.5465 13.1728 88.157 11.1215C87.8244 12.9249 87.7871 13.0698 87.0454 15.8678L85.7848 20.8007H82.4121L79.0949 6.16724H82.3572C83.7655 13.1106 83.9145 13.8777 84.3026 17.049C84.7843 14.1479 84.915 13.588 85.6005 10.6859L86.6748 6.16724H89.5666Z" fill="white"/>
<path d="M106.784 18.0464C106.45 18.6063 106.116 19.145 105.616 19.6632C104.781 20.5342 103.521 21.1972 101.965 21.1972C99.092 21.1972 97.072 19.145 97.072 15.6003C97.072 12.9891 98.2209 9.6311 102.039 9.6311C102.614 9.6311 104.281 9.6933 105.523 11.1856C106.784 12.6993 106.857 14.8128 106.895 16.0359H99.9821C99.9631 17.3824 100.649 18.7308 102.188 18.7308C103.744 18.7308 104.281 17.5904 104.634 16.8234L106.784 18.0464ZM103.947 14.0366C103.892 13.5824 103.818 12.9844 103.41 12.5098C103.057 12.117 102.522 11.9109 102.02 11.9109C101.335 11.9109 100.853 12.2823 100.575 12.6129C100.185 13.0875 100.093 13.5824 100 14.0366H103.947Z" fill="white"/>
<path d="M108.547 20.8007H111.401V6.16724H108.547V20.8007Z" fill="white"/>
<path d="M113.952 20.8007H116.806V6.16724H113.952V20.8007Z" fill="white"/>
</g>
<defs>
<clipPath id="clip0_1_10302">
<rect width="117.188" height="25" fill="white" transform="translate(0.046875 0.516846)"/>
</clipPath>
</defs>
</svg>
