<?xml version="1.0" encoding="utf-8"?><svg viewBox="0 0 40 40" xmlns="http://www.w3.org/2000/svg" xmlns:xlink="http://www.w3.org/1999/xlink"><style>:root>svg{display:none}:root>svg:target{display:block}</style><svg viewBox="0 0 24 24" id="facebook" xmlns="http://www.w3.org/2000/svg"><path d="M13.457 19v-6.3h2.186L16 9.9h-2.543V8.536c0-.72.021-1.436 1.172-1.436h1.167V5.098c0-.03-1.002-.098-2.015-.098-2.117 0-3.442 1.16-3.442 3.29V9.9H8v2.8h2.339V19h3.118z"/></svg><svg viewBox="0 0 24 24" id="google" xmlns="http://www.w3.org/2000/svg"><path d="M17.393 11.302h-5.766c0 .6 0 1.8-.004 2.399h3.341c-.128.6-.582 1.44-1.223 1.862l-.002.003c-.853.563-1.979.69-2.814.523a3.71 3.71 0 01-2.768-2.417c.003-.002.005-.018.007-.02-.264-.748-.264-1.75 0-2.35h-.001c.34-1.102 1.407-2.107 2.719-2.383 1.055-.223 2.245.019 3.12.838.117-.114 1.612-1.574 1.724-1.692-2.991-2.709-7.78-1.756-9.572 1.742l-.004.006a5.86 5.86 0 00.007 5.379l-.007.005a6.108 6.108 0 003.888 3.099c1.807.473 4.106.15 5.646-1.244l.002.002c1.305-1.175 2.117-3.177 1.707-5.752z"/></svg><svg viewBox="0 0 40 40" id="play" xmlns="http://www.w3.org/2000/svg"><path fill-rule="evenodd" clip-rule="evenodd" d="M0 20C0 8.96 8.96 0 20 0s20 8.96 20 20-8.96 20-20 20S0 31.04 0 20zm28 0l-12-9v18l12-9z"/></svg><svg viewBox="0 0 24 24" id="to-top" xmlns="http://www.w3.org/2000/svg"><path fill-rule="evenodd" clip-rule="evenodd" d="M4.293 15.707a1 1 0 010-1.414l7-7a1 1 0 011.414 0l7 7a1 1 0 01-1.414 1.414L12 9.414l-6.293 6.293a1 1 0 01-1.414 0z"/></svg><svg viewBox="0 0 24 24" id="twitter" xmlns="http://www.w3.org/2000/svg"><path d="M9.403 18c5.283 0 8.173-4.617 8.173-8.62 0-.132 0-.263-.009-.393A6.022 6.022 0 0019 7.419a5.49 5.49 0 01-1.65.477 3.02 3.02 0 001.264-1.677 5.579 5.579 0 01-1.825.736c-1.087-1.22-2.907-1.279-4.064-.132-.745.74-1.062 1.844-.83 2.896-2.31-.123-4.462-1.273-5.92-3.166-.763 1.385-.373 3.155.89 4.045a2.74 2.74 0 01-1.305-.38v.04c0 1.441.965 2.683 2.304 2.969-.422.122-.866.14-1.296.052.376 1.234 1.455 2.08 2.683 2.104a5.575 5.575 0 01-3.567 1.3A5.597 5.597 0 015 16.639a7.828 7.828 0 004.403 1.359"/></svg></svg>